# xmcd
#
# Track frame offsets:
#	150
#	9722
#	21995
#	36680
#	49560
#	65637
#	75542
#	97765
#	113725
#	127665
#	144917
#	153207
#	166680
#	179222
#	188630
#	205290
#	219802
#	230997
#
# Disc length: 3345 seconds
#
# Revision: 0
# Processed by: cddbd v1.5.2PL0 Copyright (c) Steve Scherf et al.
# Submitted via: dBpowerAMP V4.0
#
DISCID=ed0d0f12
DTITLE=The Byrds - Ballad Of Easy Rider
DYEAR=2003
DGENRE=Rock
TTITLE0=01.Ballad Of Easy Rider
TTITLE1=02.Fido
TTITLE2=03.Oil In My Lamp
TTITLE3=04.Tulsa County
TTITLE4=05.Jack Tarr The sailor
TTITLE5=06.Jesus Is Just Alright
TTITLE6=07.It´s All Over Now Baby Blue
TTITLE7=08.There Must Be Someone(I Can Turn To)
TTITLE8=09.Gunga Din
TTITLE9=10.Deportee(Plane Wreck At Los Gatos)
TTITLE10=11.Armstrong, Aldrin And Collins
TTITLE11=12.Way Beyond The Sun
TTITLE12=13.Mad Jean Goes To Hollywood
TTITLE13=14.Oil In My Lamp(Alternate Version)
TTITLE14=15.Tulsa County(Alternate Version)
TTITLE15=16.Fiddler A Dram(Moog Experiment)
TTITLE16=17.Ballad Of Easy Rider(Long version)
TTITLE17=18.Build It Up(Instrumental)
EXTD=
EXTT0=
EXTT1=
EXTT2=
EXTT3=
EXTT4=
EXTT5=
EXTT6=
EXTT7=
EXTT8=
EXTT9=
EXTT10=
EXTT11=
EXTT12=
EXTT13=
EXTT14=
EXTT15=
EXTT16=
EXTT17=
PLAYORDER=
